<svg xmlns="http://www.w3.org/2000/svg" width="104" height="53" fill="none" viewBox="0 0 104 53">
  <g class="Frame 2">
    <g class="Group">
      <path fill="#fff" d="m44.745 26.971.072-1.772 1.72 2.335C47.24 27.85 50 29.207 50 29.207s-3.127-5.373-5.065-5.88c-.91-.239-2.806-.23-4.563-.153.587-.418 1.115-.845 1.39-1.194.84-1.068 1.042-2.06 1.042-2.06l-2.488.45 2.636-1.587.96-4.021S39.78 17 38.885 17.924c-.444.458-1.105 1.797-1.658 3.03-.16-1.244-.534-2.69-1.372-3.786-.472-.618-2.997-1.498-3.889-1.928 0 0-2.482-3.143-4.371-3.932-.664-.277-2.48.326-4.557 1.225l-.53-1.991 2.943-.328-.979-1.73 3.835.374c.852-.35 3.834-2.712 3.834-2.712s-7.217-1.173-9.259.093c-.959.595-2.96 3.052-4.341 4.642.132-1.836-.522-4.174-.522-4.174l-1.962 1.907.796-3.602L14.15.858s-1.464 5.441-1.4 6.98c.031.765.65 2.446 1.265 3.944-1.214-.888-2.78-1.758-4.424-1.933C6.018 9.467 0 14.219 0 14.219l4.038.474 2.773-1.566-.911 1.94s3.831.09 6.617.934c-2.088.409-5.191 1.218-7.592 2.707-3.985 2.472-3.52 9.283-3.52 9.283l3.29-3.353.883-3.53 1.14 2.365 1.537-3.967.868 2.193 4.139-1.81c-.703 1.265-1.245 3.047-.473 5.008 1.493 3.794 4.22 5.235 4.22 5.235-.752-3.016-.94-5.738-.94-5.738l-1.585-2.007 1.542-.007c.21-.85.635-1.7 1.077-2.421 2.512 4.862 7.655 16.667 5.912 29.04-3.6.308-9.008 1.294-12.806 3.143h30.92c-2.613-1.27-6.412-1.928-9.733-2.527-.4-9.927 2.07-17.797 3.765-21.948.655 1.346 1.41 2.86 1.874 3.652l1.807-.273-1.564 1.344s1.251 2.847 1.33 5.89c0 0 1.963-3.572 2.024-5.59.036-1.148-.57-2.826-1.098-4.06l2.601 1.727 1.171-.197-.328 1.537 3.29 3.4s-.343-4.605-.95-6.202c-.215-.56-1.623-1.313-3.36-2.053l.887-1.807 1.9 1.936Zm-17.708-12.87 1.066 1.554 4.175 1.713-1.697.563s1.661 1.453 2.603 3.76c-.76-.545-4.022-2.711-4.022-2.711s-5.075-1.738-7.567-2.636l4.646-1.063.796-1.18Zm.456 33.246c-.704-5.376-2.792-17.3-8.307-27.67 1.264.21 2.558.41 3.321.481l.824-1.613.179 2.038s.655.138 1.608.458c-1.613.848-2.769 2.105-2.769 2.105l3.345.055 1.95-1.101.2.105-.557 1.47 2.802-1.15-.706 1.524 2.204.93c-1.29.442-4.203 1.754-4.574 4.664-.48 3.757 1.029 5.893 1.029 5.893.468-2.62 1.964-5.238 1.964-5.238l.033-2.021 1.258.684c.694-.756 1.668-1.355 2.479-1.77-3.582 7.039-5.55 16.198-6.283 20.156Z" class="Vector"/>
      <path fill="#FBB040" d="m36.09 31.93-.177.152.335.761c.011.025 1.163 2.693 1.236 5.468l.065 2.447a19.553 19.553 0 0 1-4.823 1.627 52.708 52.708 0 0 1 2.578-11.908c.31.603.564 1.073.76 1.41l.026.043Zm5.635.127c.025.239.033.461.028.67-.069 2.222-1.948 5.705-2.163 6.095l-.649 1.182a19.8 19.8 0 0 0 5.64-5.033l-2.41-2.492-.416-.43-.03.008Zm-19.55 9.53c-.454-7.82-3.106-14.835-5.042-19.01l-.019.073-.21.85h-.113l.158.199.215.272.024.346c.002.026.19 2.668.91 5.543l.608 2.438-2.222-1.174c-.126-.066-3.114-1.682-4.741-5.816a6.432 6.432 0 0 1-.38-3.365l-1.792.784-.39.17-.002.155c.001 8.527 5.416 15.789 12.996 18.535Zm24.27-12.86c.193.591.354 1.407.488 2.255a19.81 19.81 0 0 0 .658-1.705l-1.145-.55Zm-1.44-13.704-.837 3.51.07-.013-.333 1.626c-.022.105-.2.9-.798 1.867.93.025 1.624.1 2.112.228.615.16 1.605.633 3.28 2.759.062-.64.095-1.289.095-1.946 0-3.846-1.102-7.434-3.008-10.467l-.58 2.436Zm-17.329 1.67-.31-.127-.19-.276-.131-.193-.12.18-.433.099-.865.198c1.058.368 2.074.718 2.804.969l-.066-.057.686-.228-1.375-.565ZM19.1 6.404c.015.054.206.746.365 1.682 1.2-1.379 2.137-2.373 2.825-2.8.821-.51 2.166-.757 4.113-.757 2.753 0 5.79.488 5.918.509l2.51.407-1.993 1.58c-.729.577-3.177 2.421-4.103 2.802l-.258.106-.278-.027-1.686-.097.19.337c.19-.023.488.001.616.001.327 0 .728.143.977.247 1.86.776 3.73 3.14 4.38 3.934.21.092.478.204.758.319 1.684.695 2.825 1.198 3.314 1.838.309.403.576.858.803 1.362.234-.373.403-.573.53-.705.965-.996 4.583-2.98 5.297-3.367l2.205-1.194c-3.487-5.547-9.66-9.235-16.696-9.235-3.608 0-6.989.97-9.899 2.663l.112.395Zm7.13 28.697a98.99 98.99 0 0 1 1.416 6.223c.249-1.013.53-2.091.844-3.206l-1.368-1.936c-.072-.102-1.754-2.541-1.225-6.682.274-2.144 1.632-3.555 2.984-4.445l-.989-.416-.181.074-2.394.983.52-1.37-.164-.003-3.075-.05c1.396 3.32 2.61 6.943 3.631 10.828Zm-3.787-13.822-.04-.003a26.88 26.88 0 0 1-1.224-.15c.173.357.344.72.513 1.085.16-.16.424-.413.772-.707l-.02-.225Z" class="Vector"/>
    </g>
    <path fill="#fff" d="m50.768 45.142-.288-.352.544-1.056 1.888-8.8-2.176-.512v-.64h3.12l.496.496-2.272 9.52 2.144.304.128 1.04h-3.584Zm6.012 0c-.437 0-.741-.07-.912-.208-.17-.139-.256-.368-.256-.688v-10.08c.235-.128.539-.224.912-.288.384-.064.89-.096 1.52-.096.288 0 .523.075.704.224.181.139.272.32.272.544l-.112 10.592H56.78Zm.992-.912.144-.144.096-9.136c0-.053-.048-.085-.144-.096l-.992-.048-.144.096-.096 9.232 1.136.096Zm6.2.272c0 .15-.08.293-.24.432-.149.139-.298.208-.447.208h-2.672V34.15h.96v9.888l1.392.096-.337-10.352h1.36l-.016 10.72Zm4.97.64h-.944l-.848-5.408-.352.272v5.136h-1.072l-.208-11.2.416-.16h.672v5.408l1.136-.96-.176-4.08 1.376-.368-.336 4.944-.656.512 1.28 5.568-.288.336Zm5.416-6.736 2.031.528v5.248c0 .224-.111.443-.335.656-.225.203-.454.304-.689.304h-2.287v-1.088h2.224l-.385-4.288-1.84-.48v-4.752c0-.17.064-.336.192-.496.14-.17.288-.256.448-.256h2.672v.784l-2.271.304.24 3.536Zm6.593-4.4.08 1.008h-1.408v10.128h-1.36l.32-9.84-1.152-.384.208-1.136 3.312.224Zm2.599-.064-.337 10.208 1.345-.096V34.15l1.12.064v11.248h-3.68l.367-11.52h1.184Zm5.387-.16c.512 0 .928.165 1.248.496.33.33.496.752.496 1.264l-.48 8.688-.976.912h-2.128v-11.36h1.84Zm.368 1.152c0-.064-.064-.096-.192-.096h-.72a.172.172 0 0 0-.096.032c-.032.021-.048.043-.048.064v9.056l.144.096.592-.08c.096-.064.144-.133.144-.208l.176-8.864Zm3.96 10.208h-1.184v-9.856l-.288-.768v-.736h1.616l-.144 11.36Zm2.812 0c-.437 0-.741-.07-.912-.208-.17-.139-.256-.368-.256-.688v-10.08c.235-.128.539-.224.912-.288.384-.064.89-.096 1.52-.096.288 0 .523.075.704.224.181.139.272.32.272.544l-.112 10.592h-2.128Zm.992-.912.144-.144.096-9.136c0-.053-.048-.085-.144-.096l-.992-.048-.144.096-.096 9.232 1.136.096Zm5.272-8.192-.32-1.248-.96.112-.24 3.552 2.32.416-.224 5.312c0 .213-.138.427-.416.64-.277.213-.533.32-.768.32h-1.872l-.144-2.736h.944l-.016 1.392 1.12.256.256-4.256-2.16-.48v-5.152l.64-.384h2.512l-.08 2.256h-.592Z" class="Zouk Studios"/>
  </g>
</svg>
