<svg xmlns="http://www.w3.org/2000/svg" width="56" height="56" fill="none" viewBox="0 0 56 56">
  <g class="Group">
    <path fill="#fff" stroke="#000" d="m48.203 30.147.067.056c.21.178.415.397.514.656.33.866.573 2.48.733 3.818a64.292 64.292 0 0 1 .245 2.471l.003.04v.012h.001l-.499.038.499-.037.102 1.377-.96-.992-3.29-3.4-.185-.191.056-.261.175-.818-.446.075-.195.033-.164-.11-1.288-.855c.072.21.14.421.203.632.218.734.378 1.501.358 2.156m4.071-4.7-4.57 4.685m4.57-4.686.041-1.013.015-.35m-.056 1.363.056-1.363m-4.127 6.064-.5-.015m.5.015-.5-.015m.5.015c-.034 1.116-.58 2.593-1.076 3.736a29.151 29.151 0 0 1-.985 2.035l-.018.032-.004.009-.002.002v.001l-.438-.24m2.023-5.59c-.042 1.393-.992 3.529-1.575 4.717.026.283.044.57.051.86l-.5.013m0 0 .439.24-.89 1.62-.048-1.847c-.038-1.463-.36-2.89-.675-3.958a18.595 18.595 0 0 0-.565-1.628 7.85 7.85 0 0 0-.037-.09l-.01-.02-.002-.006-.15-.34.282-.241.245-.21-.087.013-.335.05-.171-.292c-.358-.611-.879-1.63-1.393-2.667m3.398 9.376-.439-.241.001-.002.004-.007.016-.029.06-.113a25.659 25.659 0 0 0 .295-.575c-.27-2.653-1.268-4.924-1.268-4.924l-2.067-3.485m10.048-2.264.876 1.19.078.106.12.054c.342.153 1.199.567 1.98.947l1.025.5.322.159.088.043.023.012.006.002.002.001.221-.448m-4.741-2.566L19.569 26.5v.007l.002.022a15.883 15.883 0 0 0 .037.43 36.605 36.605 0 0 0 .887 5.193l.27 1.086-.989-.523.234-.442-.234.442-.002-.001-.003-.002-.009-.005-.03-.016a6.51 6.51 0 0 1-.459-.292 9.67 9.67 0 0 1-1.16-.96c-.911-.876-2.012-2.243-2.79-4.218-.615-1.565-.463-3.02-.049-4.213l-2.95 1.29-.475.208-.19-.482-.4-1.006-1.076 2.776-.416 1.075-.5-1.038-.54-1.12-.547 2.19-.033.131-.095.097-3.29 3.353-.78.795-.075-1.111.499-.034-.5.034v-.025a6.178 6.178 0 0 1-.012-.294 17.166 17.166 0 0 1 .286-3.523c.39-2.052 1.307-4.55 3.482-5.9 1.734-1.075 3.808-1.801 5.619-2.282a30.663 30.663 0 0 0-2.166-.286 36.969 36.969 0 0 0-2.187-.148h-.04l.012-.5M53 31.349l-.22.448 1.485.731-.833-1.43-.432.25Zm0 0 .432-.252v-.001l-.003-.003-.007-.013-.027-.047-.105-.175a36.266 36.266 0 0 0-1.692-2.554c-.519-.712-1.108-1.453-1.698-2.053-.572-.581-1.212-1.102-1.839-1.266-.516-.135-1.269-.193-2.079-.21a31.658 31.658 0 0 0-1.14-.003c.12-.116.226-.23.313-.341m0 0-.394-.31.393.31Zm0 0a6.501 6.501 0 0 0 .905-1.55 5.287 5.287 0 0 0 .22-.654 1.67 1.67 0 0 0 .01-.043l.002-.014.001-.004v-.002l-.489-.102m0 0 .49.1.148-.723-.535.097m-.103.526-.49-.1v.002l-.006.024a2.69 2.69 0 0 1-.05.173l-.557.1m1.103-.198.089.492-.26.046-.932-.34m1.206-.725.303-.182.18-.109.048-.204.96-4.021.26-1.09-.984.534.238.44m-1.005 4.632-.178.107-1.028.619m1.206-.726-.192.034-1.193.216 1.43-.86-1.25 1.336m2.21-5.358-.238-.44-.003.002-.01.005-.035.019-.134.073a74.765 74.765 0 0 0-2.011 1.145c-.576.34-1.185.71-1.709 1.057-.51.338-.98.678-1.246.953-.277.286-.583.796-.87 1.338-.077.144-.154.294-.231.448m6.487-4.6.239.44h-.003l-.009.005-.034.019-.131.072-.218.12.156-.656Zm-6.487 4.6c-.235-.869-.602-1.751-1.173-2.498m1.173 2.498c-.116.23-.231.47-.344.712l1.804-2.15c-.346.358-.825 1.252-1.282 2.214a10.65 10.65 0 0 0-.178-.776Zm-1.173-2.498c-.188-.245-.52-.46-.836-.635a14.037 14.037 0 0 0-1.148-.554 53.71 53.71 0 0 0-1.096-.462c-.35-.143-.656-.27-.888-.377m3.968 2.028-.397.304.397-.304Zm-3.968-2.028a26.12 26.12 0 0 0-1.435-1.615c-.856-.883-2.012-1.936-3.061-2.375-.285-.118-.625-.122-.946-.087a6.89 6.89 0 0 0-1.134.24c-.685.196-1.486.494-2.335.848m8.91 2.99.045.054.022.028.006.008.002.002-.392.31.218-.45.1.047Zm-8.91-2.99-.232-.873m.232.873-.465.197-.27-1.014.503-.056m.232.873.13.488-.492-1.85.13.49m0 0 2.366-.264.753-.083-.374-.66-.505-.893m0 0 2.877.28.124.013.115-.047c.268-.11.654-.353 1.049-.62.408-.277.867-.61 1.296-.93a75.135 75.135 0 0 0 1.478-1.13l.097-.076.026-.02.006-.005.002-.002-.31-.392m-6.76 2.93-.608-.06 6.685-2.97.245-.191.095-.075.025-.02.006-.004.001-.002.311.392m-6.76 2.93-.3-.533 3.226.315c.623-.257 2.39-1.591 3.29-2.288a40.227 40.227 0 0 1 .386.057l.059.01.015.002h.004l.08-.493m0 0 .31.392.89-.704-1.12-.182-.08.494Zm0 0 .08-.494h-.006L35.2 7.79l-.063-.01-.236-.036a45.833 45.833 0 0 0-3.59-.384c-1.04-.068-2.16-.098-3.155-.027-.972.069-1.914.237-2.536.623-.29.18-.628.478-.976.82-.355.35-.746.772-1.146 1.22a98.396 98.396 0 0 0-1.472 1.696m0 0a15.815 15.815 0 0 0-.203-1.534 18.991 18.991 0 0 0-.292-1.332l-.021-.082-.006-.022-.002-.006v-.002l-.482.134m1.006 2.844a262.11 262.11 0 0 0-.47.549l.503.18a10.702 10.702 0 0 0-.033-.73ZM21.02 8.848l.481-.135-.227-.81-.603.587-.765.743m1.114-.385.348.359-.209.203-.14-.562Zm-1.114.385.437-1.972.045-.204-.114-.176-2.704-4.155-.611-.938-.291 1.081.483.13m2.755 6.234-.652.634.456.254.196-.888ZM17.15 3l-.483-.13v.001l-.001.003-.004.012-.012.047-.047.177a92.567 92.567 0 0 0-.665 2.69c-.18.781-.359 1.615-.489 2.354-.128.724-.217 1.402-.2 1.847.02.462.206 1.136.44 1.835.088.263.186.538.29.819M17.15 3l.483.13v.004l-.004.01-.012.046-.046.174-.052.202L17.15 3Zm-1.17 9.655c-.997-.569-2.139-1.034-3.335-1.162-1.005-.107-2.136.148-3.231.55-1.104.406-2.22.98-3.21 1.558a34.465 34.465 0 0 0-3.44 2.31l-.053.042-.014.01-.004.004H2.69l.31.393m12.98-3.705c.093.25.19.505.29.76l-.52-3.434c.025.623.441 1.855.927 3.1a12.68 12.68 0 0 0-.698-.426ZM3 16.36l-.31-.392-.947.748 1.199.14 4.038.476.162.019.142-.08 1.407-.796M3 16.36l.058-.496.52.06L3 16.36Zm5.691.116-.244.52-.326.694.767.018.012-.5m-.209-.732.752-.425-2.405.784 2.02-1.141-.367.781Zm.209.733.012-.5h.046l.13.005.043.002.31.515-.089.19-.452-.212Zm29.31 13.838c-1.611 4.246-3.62 11.42-3.33 20.29 3.204.577 6.884 1.241 9.467 2.497l-.219.95H13.21l-.218-.95c3.738-1.82 8.961-2.808 12.582-3.154 1.475-11.42-2.92-22.32-5.493-27.517a7.13 7.13 0 0 0-.569 1.479l-.093.379-.39.001-.515.002 19.698 6.023Zm-6.049-9.925.277-.417.002.002.008.004.027.019.105.07.38.252a573.211 573.211 0 0 1 1.824 1.22 11.173 11.173 0 0 0-1.285-1.584 6.724 6.724 0 0 0-.187-.183c-.01-.01-.02-.017-.027-.025l-.021-.019-.011-.01-.002-.001-.658-.576.83-.275.416-.139-2.927-1.2-.138-.057-.085-.123-.65-.948-.385.57-.11.164-.193.044-2.97.68a658.976 658.976 0 0 0 5.11 1.773l.61.21.165.056.043.015.01.003.003.001h.001l-.162.474Zm0 0 .277-.417-.054-.035-.06-.021-.163.473Zm15.226 8.341.337.345a8.73 8.73 0 0 0-.263-.161 18.523 18.523 0 0 0-1.824-.912l.345-.704 1.405 1.433Zm-4.15 3.185.25-.214-.303.046.053.169Zm-17.286-10.12.033-.064.027.304.032.37.362.076h.005l.02.005.025.006.056.013c.073.017.18.043.317.08l.069.018a12.425 12.425 0 0 0-1.9 1.595l-.012.013-.003.004-.001.001.367.34-.368-.34-.47.513a61.34 61.34 0 0 0-1.42-2.99c.922.147 1.79.272 2.37.326l.337.031.154-.302Zm2.987 3.25 1.054-.594-.173.456-.409 1.078 1.066-.438 1.622-.667-.17.368-.217.47.477.2 1.099.464c-.522.252-1.1.587-1.644 1.022-1.003.8-1.92 1.963-2.127 3.585-.25 1.958.017 3.504.354 4.569.168.532.353.942.499 1.224a5.197 5.197 0 0 0 .238.413l.017.025.005.008.002.003v.001h.001l.409-.287-.409.288.69.977.211-1.177c.224-1.254.698-2.523 1.123-3.488a21.348 21.348 0 0 1 .769-1.564l.011-.02.003-.005.064-.112.002-.129.02-1.195.532.289.343.186.264-.287c.27-.293.589-.564.928-.81-2.497 5.429-4.12 11.724-5.025 15.938-.84-5.166-2.559-13.1-5.92-20.792l.693.011 3.344.055.136.003.118-.067Zm16.376-3.817Z" class="Vector"/>
    <path fill="#FBB040" stroke="#000" d="m39.52 34.362.21-.18-.207-.359-.025-.044-.002-.003c-.19-.324-.438-.786-.747-1.386l-.537-1.042-.38 1.108a53.208 53.208 0 0 0-2.604 12.022l-.066.67.66-.13c1.71-.338 3.342-.89 4.867-1.63l-.069.126 1.577-.938a20.3 20.3 0 0 0 5.783-5.16l.26-.342-.299-.309-2.41-2.492-.417-.43-.207-.214-.288.08-.03.01-.406.113.044.42c.024.217.03.417.026.602-.031 1.011-.484 2.363-.987 3.555a26.813 26.813 0 0 1-1.114 2.314l-.649 1.183-.458.834-.061-2.3c-.075-2.85-1.24-5.568-1.279-5.656l-.185-.422Zm0 0 .185.42-.185-.42Zm7.08-13.074-.097.018.178-.747.838-3.51.324-1.357-1.227.665c-.354.192-1.43.78-2.535 1.444a32.97 32.97 0 0 0-1.584 1.004c-.482.33-.853.616-1.056.826-.1.104-.248.276-.467.624l-.497.79-.383-.851a6.339 6.339 0 0 0-.743-1.263c-.176-.23-.504-.475-1.044-.76-.534-.28-1.219-.571-2.064-.92a40.06 40.06 0 0 1-.767-.322l-.11-.049-.077-.093a24.649 24.649 0 0 0-1.705-1.939c-.769-.775-1.645-1.502-2.48-1.85-.247-.103-.567-.209-.785-.209-.044 0-.117-.003-.186-.005-.041-.002-.08-.004-.113-.004a1.953 1.953 0 0 0-.255.004l-.332.041-.165-.29-.19-.337-.453-.798.916.052 1.686.097h.01l.01.001.155.015.143-.058c.4-.165 1.195-.684 2.026-1.273a52.1 52.1 0 0 0 1.956-1.459l1.106-.876-1.392-.226c-.132-.02-3.131-.502-5.838-.502-1.93 0-3.154.25-3.85.681L46.6 21.288Zm0 0-.185.9c-.014.066-.175.802-.733 1.703l-.458.74.87.023c.917.025 1.567.1 1.998.212.469.123 1.374.503 3.014 2.585l.77.977.12-1.237c.065-.657.098-1.321.098-1.995 0-3.755-1.025-7.271-2.81-10.284M46.6 21.288l2.683-6.376m-.917-1.413c-3.662-5.15-9.677-8.511-16.479-8.511a20.12 20.12 0 0 0-10.15 2.731l-.335.195.105.373.11.392.001.001c.016.058.2.728.355 1.632l.177 1.04.693-.796a37.73 37.73 0 0 1 1.582-1.733c.463-.467.835-.788 1.128-.97l22.813 5.646Zm0 0 .01-.044.573.912m-.583-.868.583.868m0 0 .057.09.284.451-.007.004m-.334-.545.334.545M25.005 44.199l.713.258-.044-.757c-.459-7.909-3.138-14.987-5.087-19.19l-.58-1.249-.357 1.329-.003.012-.008.03-.008.03-.002.01-.116.47h-.756l.643.811.156.198.12.151.013.192c.003.037.194 2.712.923 5.63l.338 1.35-1.233-.65c-.072-.038-2.943-1.578-4.509-5.557a5.932 5.932 0 0 1-.35-3.106l.136-.897-.831.363-1.792.784-.39.17-.3.131v.397l-.002.085c.001 8.745 5.555 16.19 13.326 19.005Zm24.655-13.78-1.048-.498.358 1.103c.18.551.336 1.335.47 2.178l.265 1.684.686-1.561c.25-.57.475-1.152.674-1.748l.14-.418-.398-.19-.128-.063c-.378-.181-.741-.356-1.019-.488ZM31.268 20.157l.174-.3.081.244.686-.228 1.277-.425-1.245-.512-1.375-.565-.182.444.182-.444-.172-.07-.105-.153-.132-.192-.416-.609-.411.612-.01.016-.24.055-.865.198-1.695.388 1.643.571c1.058.368 2.075.72 2.805.97Zm-.747 6.234-1.328.546.111-.293.252-.665-.711-.012-.164-.003-3.075-.05-.766-.013.297.706c1.386 3.297 2.594 6.897 3.609 10.762a98.516 98.516 0 0 1 1.41 6.191l.976.024a95.77 95.77 0 0 1 .84-3.19l.064-.23-.138-.194-1.367-1.936c-.029-.04-1.646-2.355-1.138-6.33.249-1.946 1.48-3.245 2.763-4.09l.782-.515-.863-.364-.989-.416-.19-.08-.192.078-.182.074h-.001Zm-4.58-3.016-.038-.415-.414-.037-.04-.004h-.001c-.301-.028-.7-.077-1.2-.148l-.927-.131.408.844c.171.355.341.715.51 1.078l.3.65.507-.507c.151-.15.405-.395.74-.678l.2-.168-.024-.26-.02-.224Z" class="Vector"/>
  </g>
</svg>
